<?xml version="1.0" encoding="UTF-8"?>
<!DOCTYPE svg PUBLIC "-//W3C//DTD SVG 1.1//EN" "http://www.w3.org/Graphics/SVG/1.1/DTD/svg11.dtd">
<!-- Creator: CorelDRAW 2019 -->
<svg xmlns="http://www.w3.org/2000/svg" xml:space="preserve" width="170mm" height="120mm" version="1.1" style="shape-rendering:geometricPrecision; text-rendering:geometricPrecision; image-rendering:optimizeQuality; fill-rule:evenodd; clip-rule:evenodd"
viewBox="0 0 17000 12000"
 xmlns:xlink="http://www.w3.org/1999/xlink"
 xmlns:xodm="http://www.corel.com/coreldraw/odm/2003">
 <defs>
  <style type="text/css">
   <![CDATA[
    .fil1 {fill:#FEFEFE;fill-rule:nonzero}
    .fil0 {fill:#45B653;fill-rule:nonzero}
   ]]>
  </style>
 </defs>
 <g id="Camada_x0020_1">
  <metadata id="CorelCorpID_0Corel-Layer"/>
  <path class="fil0" d="M12382.7 620.66l136.35 0.39c-111.78,1267.95 -884.76,2522.35 -884.95,4156.36 1343.22,-942.47 2020.76,-2440.45 1297.12,-3788.28 -321.91,-604.73 -384.55,-823.23 -317.51,-958.55l-171.36 -76.76c-58.09,103.73 -113.07,197.04 -178.69,287.62 -141.15,195.66 -442.57,475.12 -690.31,706 -784.27,716.31 -1107.22,2027.12 -437.72,3186.59 98.88,171.3 188.55,295.21 318.42,457.36 23.73,-1656.32 812.08,-2805.36 928.65,-3970.73zm3185.75 3694.78l72.23 125.13c-1266.52,713.67 -2730.14,803.26 -4207.64,1638.76 15.37,105.29 75.66,272.57 136.48,377.93 464.04,803.78 1554.98,665.8 2705.05,1.82 911.93,-526.49 1796.11,-2091.11 2449.4,-2468.28l-32.48 -244.81c-1887.07,597.65 -3097.7,119.56 -4397.48,869.97 -612.52,353.63 -836.66,641.1 -890.28,1287 1619.69,-935.12 3098.48,-998.35 4164.72,-1587.52zm-7212.5 -1774l124.69 -98.35c260.44,262.46 439.07,493.14 655.88,868.68 387.92,671.96 468.06,1187.94 1019.56,2143.24 323.34,559.99 699.26,975.4 1134.25,1383.09l182.32 -61.4c-550.26,-1078.94 76.19,-1581.22 -566.6,-2694.53 -661.86,-1146.38 -1515.82,-1619.62 -2905.4,-2187.59l-241.39 69.05c583.73,1121.14 403.68,2349.41 1000.89,3383.76 467.86,810.39 822.13,1062.6 1601.46,1359.29 206.12,74.25 434.54,249.82 571.21,408.02l220.77 -136.21c-467.6,-432.8 -858.76,-874.53 -1189.62,-1447.68 -532.57,-922.37 -662.89,-1541.04 -1039.46,-2193.29 -167.35,-289.9 -347.53,-554.75 -568.56,-796.08z"/>
  <path class="fil0" d="M358.32 6028.04m2919.46 -45.86c-136.42,64.2 -322.87,110.06 -559.34,128.41 -100.04,-435.67 -159.16,-885.09 -181.89,-1352.86 -63.67,4.58 -163.71,9.17 -300.13,9.17 -236.47,0 -436.56,-13.76 -609.36,-41.28 -77.31,417.33 -195.54,742.93 -345.61,967.64 -150.06,220.13 -327.42,334.78 -532.05,334.78 -100.05,0 -191,-50.45 -272.84,-146.75 -77.31,-96.31 -118.24,-201.78 -118.24,-311.85 0,-91.72 36.38,-188.02 109.14,-288.91 68.21,-105.48 145.52,-155.93 227.37,-155.93 40.93,0 86.4,22.93 131.88,68.79 40.92,50.45 63.66,96.31 63.66,137.58 0,55.03 -13.64,105.48 -45.47,165.1 -31.83,55.03 -68.22,82.54 -113.69,82.54 -4.54,0 -13.65,-4.58 -31.83,-13.75 40.92,-32.1 63.66,-73.38 63.66,-123.82 0,-32.11 -9.09,-59.62 -31.83,-91.72 -22.74,-32.11 -50.02,-45.86 -77.31,-45.86 -140.96,0 -209.17,64.2 -209.17,188.02 0,114.65 31.83,197.2 95.49,252.23 59.12,55.03 163.71,82.55 313.77,82.55 209.19,0 354.7,-123.82 436.56,-376.05 81.85,-247.64 122.78,-509.04 122.78,-775.03 -495.67,-114.65 -741.24,-284.33 -741.24,-513.63 0,-68.79 22.74,-128.41 59.12,-183.44 40.93,-50.44 90.95,-77.96 150.07,-77.96l45.47 0c-50.02,64.2 -77.3,132.99 -77.3,215.54 0,114.65 50.01,210.96 150.06,293.5 100.05,82.55 241.01,146.75 413.82,188.03 -9.09,-114.65 -13.64,-229.3 -13.64,-343.95 0,-233.88 27.28,-421.91 86.39,-573.25 59.12,-146.75 154.62,-284.33 291.04,-398.98 136.42,-119.23 291.04,-206.36 459.3,-261.4 172.79,-59.61 345.6,-87.13 522.95,-87.13 109.14,0 168.26,0 186.45,4.59 -131.87,609.93 -204.64,1155.66 -218.28,1628.02 27.29,-4.59 68.21,-18.35 122.78,-36.69l9.1 201.78c-63.67,4.59 -109.15,9.17 -131.88,9.17l0 165.1c0,472.35 31.83,830.06 90.95,1073.11 109.14,-4.58 254.66,-41.27 432.01,-114.64l27.28 119.23zm-668.47 -2939.61c-254.66,-9.17 -459.3,77.97 -623,256.82 -163.72,178.85 -268.3,550.31 -318.33,1123.56 -9.09,96.31 -13.64,169.68 -22.73,215.54 122.78,9.17 218.28,18.34 291.03,18.34 159.16,0 354.71,-18.34 591.17,-50.44 -9.09,-178.85 -9.09,-316.43 -9.09,-417.32 0,-408.16 27.28,-788.79 90.95,-1146.5zm550.24 2985.47m682.12 -1508.78c59.12,-206.37 145.52,-366.88 254.65,-472.36 113.69,-110.06 222.83,-165.09 336.52,-165.09 109.14,0 204.63,45.86 281.94,132.99 77.31,91.72 118.23,201.78 118.23,334.77 0,151.34 -45.47,275.16 -131.87,371.47 -90.95,91.72 -204.64,142.16 -345.61,142.16 -72.76,0 -131.88,-27.51 -181.89,-87.13 -50.03,-55.03 -77.32,-123.82 -77.32,-201.78 0,-36.69 31.84,-87.14 100.05,-142.17 63.67,-59.62 118.23,-87.13 159.16,-87.13 59.12,0 109.14,13.76 154.62,41.27 40.92,27.52 63.66,68.79 63.66,119.24 0,55.03 -50.02,96.3 -150.07,119.23 18.19,-45.86 27.29,-82.54 27.29,-110.06 0,-59.62 -18.19,-87.13 -59.12,-87.13 -36.38,0 -63.66,18.34 -86.4,64.2 -22.74,41.27 -36.38,82.55 -36.38,123.82 0,36.69 18.19,77.96 50.02,114.65 31.83,36.69 68.22,55.03 104.59,55.03 100.05,0 181.9,-36.69 241.02,-110.06 59.12,-73.38 86.39,-160.51 86.39,-270.57 0,-77.96 -36.37,-146.75 -104.58,-201.79 -68.21,-55.03 -150.07,-82.54 -236.47,-82.54 -90.95,0 -177.35,22.93 -250.11,73.37 -77.3,45.86 -145.51,133 -209.19,256.82 -63.66,123.82 -100.04,201.78 -100.04,233.88 0,22.93 31.83,444.84 86.41,1261.14 181.89,-55.03 345.6,-132.99 491.12,-224.71l27.29 110.06c-163.71,82.55 -318.32,151.34 -459.3,197.2 -145.52,50.45 -322.87,87.13 -545.69,114.65l0 -114.65c131.88,0 254.66,-18.34 377.43,-50.45 0,-160.5 -36.38,-435.66 -104.59,-825.47 -72.75,-385.22 -145.52,-715.41 -227.36,-981.4l-313.78 114.65 -22.74 -73.37c286.49,-73.38 518.42,-192.61 686.67,-348.54 -9.1,123.82 -13.64,210.96 -13.64,261.4 0,128.41 4.54,261.4 9.09,394.4zm1114.12 1508.78m1346.05 -2155.41c-122.78,22.93 -222.82,36.69 -304.68,45.86 -77.31,9.18 -195.54,41.28 -345.6,87.14 -9.1,96.3 -50.03,330.19 -127.33,706.24 -77.31,371.46 -118.24,623.69 -118.24,756.68 0,169.68 36.38,298.09 104.59,389.81 68.21,91.72 163.71,137.58 291.04,137.58 90.95,0 163.71,-41.28 213.73,-123.82 50.02,-82.55 72.76,-192.61 72.76,-321.02 0,-50.45 -18.19,-105.48 -54.57,-155.92 -31.83,-55.04 -72.76,-82.55 -118.24,-82.55 -36.37,0 -68.21,18.34 -90.95,55.03 -22.73,36.69 -36.37,82.55 -36.37,132.99 0,41.28 18.19,64.21 59.11,64.21 40.93,0 68.21,-32.1 86.41,-96.31l27.28 18.35c0,45.86 -13.64,82.54 -36.37,114.64 -27.29,32.11 -54.58,45.86 -86.41,45.86 -50.02,0 -95.49,-18.34 -136.43,-50.44 -45.47,-32.1 -68.21,-73.38 -68.21,-119.24 0,-64.2 27.29,-123.82 81.86,-174.26 59.12,-50.45 118.24,-73.38 181.9,-73.38 81.85,0 163.7,27.52 241.02,87.13 81.84,55.04 122.78,114.65 122.78,178.86 0,142.16 -40.94,270.57 -127.34,394.39 -86.39,119.24 -186.44,178.85 -300.12,178.85 -172.81,0 -309.23,-55.03 -409.28,-160.51 -104.59,-110.06 -154.61,-252.22 -154.61,-431.08 0,-87.13 18.19,-325.6 50.02,-710.82 31.83,-385.22 50.03,-609.94 45.47,-674.14l-409.27 119.24 0 -123.83 409.27 -96.3c4.56,-45.86 4.56,-96.31 4.56,-155.92 0,-178.86 -13.65,-348.54 -36.39,-518.22l377.44 -64.2c4.55,188.02 -13.64,403.56 -50.02,646.62 186.44,-59.62 309.23,-96.31 377.43,-110.06 63.67,-9.18 140.98,-32.11 231.93,-55.04l31.83 137.58zm77.3 2155.41m236.47 -2513.11c-31.83,45.86 -68.21,68.79 -118.24,68.79 -31.83,0 -59.11,-18.35 -81.84,-50.45 -22.74,-32.1 -36.39,-68.79 -36.39,-100.89 0,-36.69 22.74,-73.37 72.76,-105.48 50.02,-32.1 95.5,-50.44 140.97,-50.44 45.48,0 90.95,32.1 136.43,96.3 40.92,59.62 63.66,123.82 63.66,188.03 0,155.92 -95.49,307.26 -286.48,463.18 0,-32.1 -13.65,-64.2 -40.94,-91.72 140.98,-55.03 213.73,-151.34 213.73,-279.74 0,-82.55 -22.74,-123.82 -63.66,-137.58zm404.72 2513.11m500.22 -307.26c-63.67,-59.62 -118.23,-91.72 -163.71,-91.72 -22.74,0 -54.57,18.34 -90.95,59.62 -36.37,41.27 -54.57,73.37 -54.57,96.3 0,73.38 40.94,142.17 127.34,206.37 86.39,64.21 190.99,96.31 322.86,96.31 63.67,0 127.33,-36.69 200.1,-114.65 68.21,-77.96 104.58,-165.1 104.58,-252.23 0,-77.96 -27.28,-160.51 -86.4,-247.64 -54.57,-87.14 -218.28,-238.47 -482.02,-449.43 -113.69,-91.72 -191,-169.68 -236.47,-229.3 -45.48,-64.2 -77.32,-132.99 -104.6,-210.95 -22.73,-82.55 -36.38,-160.51 -36.38,-238.47 0,-142.17 59.12,-275.16 172.81,-398.98 118.23,-123.82 259.2,-183.44 422.91,-183.44 131.88,0 245.57,32.1 345.61,96.31 95.49,59.61 145.52,146.75 145.52,256.81 0,91.72 -31.83,174.27 -100.05,252.23 -68.21,77.96 -145.51,114.65 -231.92,114.65 -68.21,0 -127.33,-36.69 -172.8,-105.48 -50.02,-73.37 -72.76,-142.16 -72.76,-206.37 0,-82.55 45.47,-123.82 140.96,-123.82 27.29,0 59.12,4.59 81.86,13.76 -4.54,9.17 -9.09,18.34 -18.19,27.51 -54.56,59.62 -81.85,114.65 -81.85,165.1 0,36.69 27.29,64.2 81.85,87.13 50.02,22.93 95.5,32.1 131.88,32.1 27.29,0 54.57,-18.34 77.3,-50.44 22.74,-32.1 36.38,-59.62 36.38,-91.72 0,-100.89 -36.38,-192.61 -109.13,-270.57 -72.76,-77.96 -159.16,-119.24 -263.76,-119.24 -95.49,0 -172.8,36.69 -236.46,110.07 -63.66,73.37 -95.49,151.33 -95.49,238.47 0,288.91 131.87,536.55 395.61,738.34 277.4,215.54 418.37,431.08 418.37,642.03 0,123.82 -22.74,229.3 -77.31,316.43 -50.01,87.14 -109.13,160.51 -181.89,220.13 -68.22,59.62 -127.33,91.72 -168.26,105.48 -40.92,13.76 -104.58,18.34 -190.99,18.34 -95.49,0 -172.8,-45.86 -241.01,-137.58 -68.21,-91.72 -100.05,-192.61 -100.05,-298.08 0,-77.97 27.29,-146.76 86.41,-206.37 54.56,-59.62 113.68,-91.72 177.34,-91.72 40.93,0 81.86,13.76 113.69,36.69 31.83,22.93 50.03,50.44 50.03,87.13 0,32.1 -13.65,64.2 -36.39,100.89z"/>
  <path class="fil1" d="M202.37 10266.16m0 -3650.52l0 3650.52 944.2 0 0 -1405.31 1306.5 0 0 -823.43 -1306.5 0 0 -598.35 1575.48 0 0 -823.43 -2519.68 0zm2931.39 3650.52m0 -3815.21l0 2892.97c0,527 49.41,1010.07 900.28,1010.07 247.03,0 576.4,-76.85 768.53,-203.11l-197.62 -609.33c-126.26,54.89 -236.05,93.32 -318.39,93.32 -175.66,0 -236.05,-115.28 -236.05,-362.31l0 -2821.61 -916.75 0z"/>
  <path class="fil1" d="M4808.07 10266.16m1306.5 -581.89c-323.88,0 -373.29,-433.67 -373.29,-905.77 0,-455.62 115.28,-746.57 373.29,-746.57 279.96,0 373.29,285.46 373.29,845.39 0,537.97 -104.3,806.95 -373.29,806.95zm-1306.5 -801.47c0,999.09 483.07,1471.19 1268.07,1471.19 757.56,0 1361.4,-526.99 1361.4,-1559.02 0,-1290.03 -845.38,-1421.78 -1284.54,-1421.78 -598.36,0 -1344.93,356.82 -1344.93,1509.61zm2953.35 1383.36m988.11 -1718.21c5.49,-252.52 164.69,-400.74 400.73,-400.74 142.73,0 279.97,32.94 395.25,93.32l148.22 -763.04c-142.73,-71.36 -318.4,-104.3 -455.63,-104.3 -236.05,0 -510.53,126.26 -658.74,472.1l-71.37 -389.76 -746.57 0 71.36 537.98 0 2272.65 916.75 0 0 -1718.21z"/>
  <path class="fil1" d="M9699.22 10266.16m2552.62 -2673.39c-444.65,-170.17 -867.34,-219.58 -1064.97,-219.58 -999.09,0 -1487.65,647.76 -1487.65,1613.92 0,686.18 214.09,1361.39 1053.98,1361.39 285.46,0 543.46,-87.83 708.15,-345.84l32.94 5.49 38.42 258.01 779.51 0 -60.38 -592.87 0 -2080.52zm-911.26 1789.58c0,159.2 -120.77,312.9 -334.86,312.9 -318.39,0 -395.24,-351.33 -395.24,-774.02 0,-472.1 120.76,-900.28 477.58,-900.28 98.81,0 192.13,16.47 252.52,38.43l0 1322.97z"/>
 </g>
</svg>
